<svg version="1.1" id="_x32_" xmlns="http://www.w3.org/2000/svg" xmlns:xlink="http://www.w3.org/1999/xlink" viewBox="0 0 512 512" xml:space="preserve" fill="#bfbdbd" stroke="#bfbdbd" stroke-width="24.576"><g id="SVGRepo_bgCarrier" stroke-width="0"></g><g id="SVGRepo_tracerCarrier" stroke-linecap="round" stroke-linejoin="round"></g><g id="SVGRepo_iconCarrier"> <style type="text/css">  .st0{fill:#bfbdbd;}  </style> <g> <path class="st0" d="M0,22.375v343h512v-343H0z M462.297,315.656H49.703V72.094h412.594V315.656z"></path> <path class="st0" d="M300.156,388.563h-88.313c0,0,0,60.031-54.734,60.031c0,23.938,0,41.031,0,41.031h197.781 c0,0,0-17.094,0-41.031C300.156,448.594,300.156,388.563,300.156,388.563z"></path> <path class="st0" d="M217,256.844c0.625,0.375,1.406,0.344,2.031,0l86.719-51.75c0.594-0.375,0.969-1.031,0.969-1.75 c0-0.734-0.375-1.406-0.969-1.75l-86.719-51.781c-0.625-0.344-1.406-0.375-2.031,0c-0.656,0.344-1.031,1.031-1.031,1.766v51.766 v51.75C215.969,255.813,216.344,256.5,217,256.844z"></path> </g> </g></svg>