<!DOCTYPE svg PUBLIC "-//W3C//DTD SVG 1.1//EN" "http://www.w3.org/Graphics/SVG/1.1/DTD/svg11.dtd">
<!-- Uploaded to: SVG Repo, www.svgrepo.com, Transformed by: SVG Repo Mixer Tools -->
<svg fill="rgb(34,0,70)" width="64px" height="64px" viewBox="-11.2 -11.2 54.40 54.40" version="1.1" xmlns="http://www.w3.org/2000/svg">
<g id="SVGRepo_bgCarrier" stroke-width="0"/>
<g id="SVGRepo_tracerCarrier" stroke-linecap="round" stroke-linejoin="round"/>
<g id="SVGRepo_iconCarrier"> <title>paper</title> <path d="M0 32l4-4 4 4 4-4 4 4 4-4 4 4 4-4 4 4v-25.984q0-2.496-1.76-4.256t-4.224-1.76h-20q-2.496 0-4.256 1.76t-1.76 4.256v25.984zM4 22.016v-16q0-0.832 0.576-1.408t1.44-0.608h20q0.8 0 1.408 0.608t0.576 1.408v16l-4 4-4-4-4 4-4-4-4 4zM8 18.016h16v-2.016h-16v2.016zM8 14.016h16v-2.016h-16v2.016zM8 10.016h16v-2.016h-16v2.016z"/> </g>
</svg>