<?xml version="1.0" standalone="no"?>
<!DOCTYPE svg PUBLIC "-//W3C//DTD SVG 20010904//EN"
 "http://www.w3.org/TR/2001/REC-SVG-20010904/DTD/svg10.dtd">
<svg version="1.0" xmlns="http://www.w3.org/2000/svg"
 width="284.000000pt" height="177.000000pt" viewBox="0 0 284.000000 177.000000"
 preserveAspectRatio="xMidYMid meet">

<g transform="translate(0.000000,177.000000) scale(0.100000,-0.100000)"
fill="#000000" stroke="none">
<path d="M7 1763 c-11 -10 -8 -141 2 -148 13 -7 28 24 25 53 -1 13 5 26 13 29
8 3 12 12 9 19 -3 9 4 16 22 20 41 9 49 12 29 13 -10 1 -15 6 -12 11 7 11 -77
14 -88 3z"/>
<path d="M773 1759 c9 -5 17 -16 17 -23 0 -17 32 -53 50 -57 8 -2 25 1 38 5
16 5 29 3 42 -9 17 -15 20 -15 44 0 13 9 35 15 48 13 19 -2 23 -9 21 -32 -1
-16 -14 -41 -28 -56 -15 -16 -23 -33 -20 -42 4 -9 2 -19 -4 -23 -6 -3 -11 -14
-11 -25 0 -11 -10 -20 -25 -24 -24 -6 -36 -36 -14 -36 21 0 3 -35 -18 -36 -23
-1 -24 10 -7 64 2 7 -1 10 -6 7 -6 -3 -10 -17 -10 -31 0 -16 -4 -23 -11 -18
-9 5 -10 -1 -5 -22 5 -21 4 -25 -4 -14 -14 21 -12 57 3 63 6 2 8 8 4 13 -5 5
-17 -2 -29 -16 -19 -24 -19 -24 -15 -3 3 15 1 20 -9 16 -8 -3 -14 0 -14 6 0
18 29 25 55 13 19 -9 26 -7 41 9 11 12 13 19 5 19 -8 0 -10 7 -6 19 4 13 -1
24 -16 34 -13 10 -18 20 -14 28 5 8 4 10 -3 5 -7 -4 -12 -14 -12 -22 0 -8 -4
-12 -10 -9 -5 3 -10 -1 -10 -9 0 -18 11 -21 26 -6 8 8 14 7 22 -3 9 -11 8 -18
-7 -31 -18 -17 -20 -17 -41 4 -11 11 -19 24 -16 28 3 4 -5 9 -17 9 -16 2 -18
0 -8 -6 7 -5 10 -14 7 -20 -4 -6 -2 -11 3 -11 19 0 12 -18 -16 -45 l-28 -26
22 -18 c21 -17 21 -20 5 -26 -11 -5 -13 -9 -4 -12 21 -8 13 -20 -13 -20 -29 0
-31 4 -8 29 14 16 14 18 1 18 -9 0 -19 -11 -22 -25 -4 -14 -11 -25 -17 -25 -6
0 -9 8 -7 18 4 15 1 18 -17 14 -13 -2 -26 1 -29 7 -4 6 -2 11 3 11 17 0 13 19
-10 51 -24 34 -22 64 6 64 27 0 32 41 9 66 -20 22 -49 26 -41 6 4 -10 -2 -13
-21 -11 -15 2 -19 1 -9 -2 9 -3 17 -12 17 -20 0 -8 5 -12 10 -9 6 3 10 4 10 1
0 -16 -42 -26 -62 -15 -22 11 -22 10 -6 -6 11 -12 14 -24 8 -39 -4 -12 -6 -34
-5 -49 2 -15 -1 -29 -6 -33 -5 -3 -9 6 -9 20 0 32 -20 45 -21 14 -1 -13 -1
-26 0 -30 0 -4 -6 -5 -14 -2 -8 4 -15 1 -15 -6 0 -7 -8 -10 -20 -7 -11 3 -20
1 -20 -4 0 -5 -5 -9 -11 -9 -16 0 -7 93 11 107 13 10 12 14 -7 35 -13 14 -23
33 -23 44 0 16 -2 16 -10 4 -6 -9 -6 -18 0 -24 15 -15 12 -29 -4 -23 -12 5
-14 -3 -11 -39 2 -24 -2 -47 -8 -51 -7 -4 -8 0 -4 11 5 13 3 17 -7 13 -8 -3
-17 1 -20 10 -12 30 -15 7 -5 -31 8 -27 7 -42 0 -49 -6 -6 -11 -38 -11 -70 0
-50 2 -58 16 -53 13 5 15 2 10 -16 -3 -13 -8 -41 -11 -63 -4 -34 -2 -32 9 13
8 29 19 58 25 66 13 15 5 26 -21 26 -23 0 -19 44 5 48 20 4 23 -14 5 -21 -7
-3 -2 -4 11 -4 14 1 26 9 29 20 3 12 11 17 22 14 9 -2 25 0 35 5 14 9 16 7 11
-13 -3 -13 -3 -18 0 -11 7 14 34 16 34 2 0 -5 -6 -10 -12 -10 -9 0 -8 -4 2
-10 13 -9 7 -14 -13 -11 -4 0 -6 -4 -5 -11 2 -6 -8 -17 -21 -24 -13 -7 -28
-19 -33 -28 -7 -12 -3 -13 24 -5 43 12 49 11 47 -3 -3 -27 2 -37 15 -32 11 4
13 0 9 -14 -2 -11 1 -23 8 -28 9 -5 11 -2 6 9 -3 8 3 32 14 53 10 21 19 44 19
52 0 7 4 11 9 8 5 -4 7 3 4 14 -5 19 -9 22 -35 24 -13 1 -28 15 -28 26 0 10
85 5 92 -5 5 -6 8 -6 8 1 0 7 11 11 25 10 14 0 25 -2 25 -3 0 -2 -9 -17 -20
-35 -14 -23 -20 -49 -19 -83 1 -45 2 -46 8 -16 3 19 12 36 19 37 7 1 8 0 2 -3
-15 -7 -12 -20 6 -27 9 -4 23 -1 30 5 10 8 18 9 27 0 8 -6 16 -8 20 -5 3 3 21
1 40 -5 32 -11 37 -19 38 -64 0 -23 15 -13 34 24 11 20 14 41 9 67 -7 41 -29
88 -42 94 -5 1 -13 14 -17 27 -5 16 -4 21 4 17 6 -4 11 -14 11 -22 0 -8 4 -13
8 -10 5 3 15 -6 22 -19 7 -14 17 -25 22 -25 4 0 8 -11 8 -25 0 -22 9 -30 33
-26 10 1 9 -13 -1 -25 -14 -15 -51 -114 -44 -114 4 0 9 -11 10 -26 1 -14 -2
-23 -7 -20 -11 7 -22 -20 -15 -38 3 -8 15 -16 26 -19 11 -3 17 -10 13 -16 -3
-6 -11 -9 -16 -6 -5 4 -9 -1 -9 -9 0 -8 8 -17 18 -19 9 -3 -4 -5 -29 -6 -28
-1 -52 -7 -59 -16 -17 -20 -27 -19 -35 5 -4 11 -10 18 -15 15 -13 -8 -22 13
-15 34 4 13 12 17 25 14 17 -5 20 0 20 27 0 22 -4 30 -12 26 -7 -3 -21 -9 -30
-12 -10 -4 -18 -11 -18 -17 0 -6 -6 -3 -13 7 -10 13 -27 18 -65 19 -29 0 -52
5 -52 10 0 6 -8 3 -19 -7 -10 -9 -25 -14 -35 -10 -9 3 -16 1 -16 -6 0 -6 -10
-10 -22 -8 -19 2 -23 9 -21 33 l2 30 -14 -32 c-29 -63 -75 -34 -69 43 3 36 2
44 -5 29 -5 -11 -10 -17 -10 -13 -1 3 -23 1 -49 -6 -29 -8 -56 -10 -71 -5 -12
5 -27 7 -32 3 -5 -3 -9 -1 -9 4 0 5 -10 12 -21 15 -15 4 -20 11 -15 22 3 9 3
22 -1 28 -11 18 -21 -26 -11 -52 8 -22 7 -23 -8 -10 -16 13 -16 12 -5 -9 16
-30 11 -164 -7 -170 -6 -2 -12 4 -12 12 0 9 -4 24 -9 34 -13 26 -31 86 -32
108 0 18 -1 18 -9 -1 -9 -23 -15 -13 -25 48 -3 21 -10 35 -16 32 -5 -4 -9 -1
-9 5 0 7 -5 6 -14 -3 -12 -12 -12 -25 7 -93 26 -101 21 -117 -33 -108 l-40 7
0 -347 c0 -190 4 -346 8 -346 5 0 31 7 57 15 27 8 49 13 50 12 1 -1 7 -15 13
-31 21 -47 23 -25 7 65 -21 118 -21 119 16 119 30 0 31 -2 25 -32 -3 -18 -8
-64 -11 -103 -4 -62 -3 -66 6 -32 l11 37 70 -4 c59 -3 73 -1 89 15 10 10 19
14 19 7 0 -6 3 -9 6 -5 4 3 4 13 1 21 -7 18 -37 10 -37 -9 0 -8 -4 -17 -10
-20 -6 -3 -7 1 -4 10 5 11 2 16 -7 15 -27 -4 -39 0 -39 14 0 9 7 12 23 9 16
-3 18 -2 8 5 -18 13 -6 46 14 39 9 -4 12 -1 9 8 -8 19 -34 27 -34 11 0 -8 -7
-17 -16 -20 -11 -4 -15 0 -14 17 3 35 1 49 -8 43 -4 -2 -8 3 -9 12 -8 77 -8
78 37 122 35 34 46 40 48 27 2 -9 9 -18 15 -18 11 -1 18 -2 42 -8 6 -2 31 -2
58 -1 35 1 49 -3 53 -15 6 -14 8 -14 20 2 10 14 15 15 24 6 14 -13 4 -37 -11
-28 -5 4 -12 -1 -16 -11 -6 -16 -7 -15 -20 2 -10 14 -13 14 -13 3 0 -8 6 -21
13 -28 10 -11 9 -13 -5 -8 -10 4 -18 2 -18 -3 0 -6 -14 -10 -31 -10 -24 0 -30
-4 -25 -15 3 -9 0 -15 -9 -15 -8 0 -15 6 -15 14 0 7 -8 20 -17 27 -16 12 -17
12 -7 -1 19 -26 23 -58 8 -64 -8 -3 -14 -12 -14 -21 0 -8 -4 -15 -10 -15 -17
0 -11 -15 16 -46 24 -27 26 -23 8 21 -4 11 1 15 17 16 l24 0 -22 11 c-22 11
-31 27 -15 29 45 8 52 6 53 -20 1 -20 4 -15 14 19 l13 45 -2 -52 c-2 -35 2
-53 9 -53 6 0 12 6 13 13 9 72 30 114 24 45 -4 -32 -2 -39 9 -32 11 6 12 5 2
-7 -9 -11 -8 -18 2 -32 11 -15 13 -16 19 -2 3 8 3 22 0 30 -4 8 1 17 10 21 12
5 13 10 5 25 -5 11 -7 25 -3 31 5 8 11 1 16 -17 6 -23 4 -33 -8 -42 -12 -9 -7
-10 28 -6 25 3 39 2 35 -3 -5 -5 -13 -10 -18 -10 -5 -1 -11 -2 -14 -3 -3 0 -1
-10 5 -22 11 -19 12 -20 24 -3 14 19 36 11 36 -13 0 -10 6 -14 20 -10 19 5 24
-4 23 -42 -1 -9 2 -10 10 -2 13 13 57 15 57 3 0 -5 -10 -13 -22 -19 l-22 -9
24 -24 c26 -26 18 -53 -19 -58 -19 -3 -25 5 -22 33 0 6 -8 21 -18 34 l-19 25
5 -48 6 -47 -34 3 c-31 3 -34 6 -33 33 1 17 5 39 9 50 6 16 5 18 -5 8 -7 -7
-14 -21 -15 -31 0 -11 -9 -28 -19 -38 -18 -17 -19 -17 -32 1 -8 10 -14 24 -14
31 0 6 -18 21 -40 32 -22 10 -38 21 -35 23 2 3 -4 5 -15 5 -10 0 -16 -5 -12
-11 14 -22 9 -34 -21 -46 -25 -9 -28 -13 -14 -16 10 -3 26 1 35 8 9 7 14 9 10
5 -4 -5 2 -22 13 -38 12 -16 22 -40 23 -54 1 -27 13 -32 18 -7 2 12 7 10 18
-11 11 -22 12 -31 2 -46 -7 -11 -12 -27 -12 -35 0 -8 -7 -15 -15 -15 -17 0
-20 16 -5 25 16 10 0 33 -19 28 -13 -3 -20 2 -25 19 -4 17 -8 20 -15 10 -4 -8
-11 -13 -15 -13 -18 3 -21 -1 -23 -27 -2 -15 0 -42 3 -59 4 -28 9 -33 33 -33
25 0 28 3 25 28 l-4 27 12 -27 c10 -23 18 -28 46 -28 31 0 33 2 21 17 -12 15
-12 16 4 10 10 -4 51 -7 91 -7 l72 0 10 -37 9 -38 921 -2 c995 -3 959 -5 913
48 -26 30 -24 40 6 35 14 -3 25 0 25 5 0 5 5 9 11 9 6 0 9 -7 5 -15 -3 -8 -2
-15 3 -15 5 0 11 8 15 18 3 9 10 27 16 40 9 21 8 22 -13 10 -23 -13 -67 -21
-67 -12 0 3 7 13 16 21 13 14 13 17 2 24 -8 4 -26 6 -41 5 -15 -2 -24 1 -20 7
3 5 0 13 -8 17 -10 7 -38 78 -39 100 0 10 40 9 41 -1 1 -5 2 -15 3 -21 1 -7 7
-12 14 -10 7 1 12 -5 12 -13 0 -8 7 -15 15 -15 18 0 18 2 3 35 -6 14 -17 24
-24 21 -6 -2 -16 6 -23 20 -9 21 -8 24 9 24 10 0 26 -10 34 -22 15 -21 15 -21
13 8 -1 18 2 28 10 27 7 -2 15 8 19 21 6 24 6 24 35 8 16 -10 32 -25 35 -34 3
-10 10 -18 16 -18 5 0 7 -7 4 -16 -6 -16 15 -44 33 -44 6 0 11 -7 11 -16 0
-16 9 -16 75 -1 11 2 14 2 8 0 -16 -5 -15 -3 -2 -41 7 -22 15 -29 26 -25 10 4
14 2 9 -5 -3 -6 -2 -13 4 -17 6 -4 10 13 10 44 0 29 -5 51 -10 51 -7 0 -7 6 0
19 6 13 10 155 10 393 l0 374 -30 29 c-26 25 -30 26 -36 11 -5 -14 -9 -15 -15
-4 -5 7 -14 13 -21 13 -7 0 -17 10 -24 22 -6 13 -14 20 -17 16 -4 -3 -7 8 -7
25 0 21 -7 35 -20 42 -23 13 -16 40 9 33 10 -3 24 -16 30 -29 7 -16 16 -22 24
-18 9 5 9 4 0 -7 -7 -7 -13 -20 -13 -29 0 -12 2 -12 9 -2 7 11 9 10 15 -3 3
-9 11 -13 17 -10 6 4 8 14 5 22 -4 9 -1 22 5 30 9 10 9 20 0 39 -15 33 -14 37
5 30 9 -4 27 0 39 8 23 15 23 17 24 261 l1 245 -408 0 c-396 0 -409 -1 -427
-20 -10 -11 -23 -20 -29 -20 -6 0 -16 -10 -21 -22 -6 -13 -16 -22 -23 -21 -7
2 -13 -11 -14 -35 l-1 -37 -7 45 c-4 28 -8 35 -8 19 -1 -18 -14 -36 -37 -53
-19 -15 -35 -31 -35 -37 0 -5 15 -19 34 -30 36 -21 55 -51 37 -57 -6 -2 -11
-10 -11 -18 0 -9 5 -12 12 -8 8 5 9 2 5 -10 -4 -10 -7 -20 -7 -22 0 -2 -7 -4
-16 -4 -9 0 -12 5 -8 12 5 8 2 9 -9 5 -54 -22 -53 -22 -38 -4 15 19 8 22 -20
7 -14 -8 -19 -7 -19 1 0 7 -3 9 -6 6 -4 -4 -19 2 -34 13 -15 11 -30 17 -34 13
-13 -13 -5 26 14 70 25 55 33 62 85 62 37 0 39 2 42 33 2 18 -1 31 -6 27 -5
-3 -8 -17 -5 -30 2 -14 0 -25 -5 -25 -13 0 -21 27 -14 47 5 11 3 14 -6 8 -7
-4 -11 -18 -8 -31 3 -16 0 -24 -9 -24 -8 0 -14 4 -14 9 0 5 -3 18 -6 28 -4 12
-3 14 3 6 6 -9 18 2 41 37 18 27 32 51 32 54 0 3 -93 6 -207 5 -146 0 -202 -3
-187 -10 20 -10 50 -69 34 -69 -4 0 -6 -9 -3 -21 4 -13 -2 -27 -16 -40 -11
-11 -21 -24 -21 -29 0 -6 -5 -10 -11 -10 -7 0 -5 10 6 26 32 49 -1 118 -61
130 -19 3 -37 10 -40 15 -3 5 -139 9 -302 9 -207 -1 -292 -4 -279 -11z m1627
-29 c18 -9 18 -40 1 -40 -17 0 -43 28 -37 38 9 15 12 15 36 2z m-1210 -15 c0
-16 -35 -21 -45 -6 -4 8 9 15 38 20 4 0 7 -6 7 -14z m1157 9 c-3 -3 -12 -4
-19 -1 -8 3 -5 6 6 6 11 1 17 -2 13 -5z m-732 -35 c-5 -22 -4 -29 4 -25 6 4
11 3 11 -1 0 -5 -9 -14 -21 -21 -12 -8 -18 -9 -15 -3 5 7 1 8 -9 5 -14 -6 -14
-8 1 -25 20 -22 11 -38 -11 -19 -19 16 -19 51 1 76 8 10 13 13 9 7 -3 -7 -1
-13 5 -13 6 0 10 8 9 18 -2 26 0 32 12 32 7 0 8 -11 4 -31z m-265 12 c0 -13
-29 -35 -37 -27 -3 3 -1 6 5 6 7 0 11 3 11 8 -3 14 1 22 11 22 6 0 10 -4 10
-9z m410 -41 c0 -16 -4 -30 -10 -30 -5 0 -10 14 -10 30 0 17 5 30 10 30 6 0
10 -13 10 -30z m365 0 c14 -22 -9 -40 -51 -40 -43 0 -53 10 -36 36 13 21 75
24 87 4z m-824 -45 c10 -32 13 -58 7 -61 -5 -3 -8 -25 -7 -48 2 -31 -4 -52
-19 -73 -12 -17 -22 -38 -22 -47 0 -20 -20 -21 -46 -1 -10 8 -29 15 -41 15
-29 0 -47 33 -33 59 5 11 8 35 6 53 -3 27 -8 34 -30 36 -14 2 -26 7 -26 11 0
5 -9 11 -20 14 -17 4 -20 11 -14 34 3 15 14 34 23 41 14 11 17 10 21 -9 7 -30
27 -35 35 -9 8 26 25 16 25 -14 0 -13 6 -23 14 -23 8 0 12 6 8 15 -3 10 -1 13
6 8 7 -4 12 -3 12 2 0 6 14 15 30 21 17 5 30 15 30 20 0 6 6 11 13 11 6 0 19
-25 28 -55z m97 9 c3 -46 -11 -75 -29 -57 -14 14 -2 56 14 46 7 -4 4 4 -5 19
-17 26 -14 42 6 35 6 -2 12 -21 14 -43z m925 29 c-3 -10 -3 -15 2 -11 4 4 13
0 20 -9 16 -21 45 -10 45 17 0 11 5 20 11 20 8 0 9 -15 4 -47 -8 -57 -11 -63
-31 -63 -8 0 -12 -5 -9 -10 4 -6 1 -18 -6 -26 -7 -8 -11 -39 -10 -73 1 -49 -1
-59 -17 -63 -36 -10 -44 16 -37 120 7 113 16 162 30 162 3 0 2 -8 -2 -17z
m417 7 c0 -5 -5 -10 -11 -10 -5 0 -7 5 -4 10 3 6 8 10 11 10 2 0 4 -4 4 -10z
m-1401 -9 c14 -9 24 -51 12 -51 -13 1 -40 27 -34 33 3 4 1 7 -6 7 -7 0 -9 5
-6 10 8 12 16 12 34 1z m738 -83 c-16 -10 -21 -2 -13 19 6 15 9 15 16 3 6 -9
5 -17 -3 -22z m-637 8 c0 -2 -7 -6 -15 -10 -8 -3 -15 -1 -15 4 0 6 7 10 15 10
8 0 15 -2 15 -4z m-363 -38 c-3 -8 -6 -5 -6 6 -1 11 2 17 5 13 3 -3 4 -12 1
-19z m976 -8 c-3 -11 -7 -20 -9 -20 -2 0 -4 9 -4 20 0 11 4 20 9 20 5 0 7 -9
4 -20z m55 -5 c-3 -3 -9 2 -12 12 -6 14 -5 15 5 6 7 -7 10 -15 7 -18z m-985
-10 c-3 -9 -8 -14 -10 -11 -3 3 -2 9 2 15 9 16 15 13 8 -4z m-496 -52 c-3 -10
-5 -2 -5 17 0 19 2 27 5 18 2 -10 2 -26 0 -35z m838 27 c-3 -10 -1 -21 5 -25
6 -4 10 4 10 19 0 21 4 25 25 24 14 -1 25 -5 25 -9 0 -4 8 -6 17 -5 21 1 31
-43 13 -54 -7 -4 1 -10 20 -13 18 -4 29 -11 25 -17 -4 -6 -11 -8 -16 -4 -7 4
-8 -7 -4 -30 5 -24 3 -36 -4 -36 -20 0 -12 -20 12 -29 26 -10 34 -51 10 -51
-9 0 -13 6 -10 14 3 8 0 20 -8 26 -10 8 -14 8 -18 -2 -3 -7 -6 -2 -6 13 -1 14
4 30 11 37 8 8 4 10 -18 8 -16 -2 -31 -4 -34 -5 -3 0 -5 -20 -5 -43 0 -32 -4
-43 -16 -46 -10 -2 -17 3 -16 10 2 52 -18 68 -26 21 -3 -16 -4 8 -2 52 1 44 0
64 -4 45 -6 -33 -8 -35 -48 -36 -37 -1 -43 1 -44 20 -2 19 -2 19 -6 -2 -4 -22
-5 -23 -18 -5 -13 17 -14 17 -20 1 -11 -28 -25 -21 -25 11 0 31 28 69 39 54
11 -16 41 -23 42 -10 1 7 5 -4 9 -23 l7 -35 2 33 c0 18 5 31 10 28 5 -4 11 0
14 6 6 19 -4 49 -14 42 -5 -3 -9 0 -9 5 0 6 3 11 8 11 13 0 39 -35 35 -47 -3
-7 4 -9 18 -6 18 5 19 7 5 15 -9 5 -16 18 -16 29 0 13 -4 18 -12 13 -6 -4 -8
-3 -5 2 3 5 15 10 27 11 16 1 20 -2 15 -17z m1340 -9 c3 -5 1 -12 -5 -16 -5
-3 -10 1 -10 9 0 18 6 21 15 7z m-1025 -42 c0 -9 -41 1 -57 14 -26 20 -12 26
22 10 19 -9 35 -20 35 -24z m193 6 c-3 -9 -8 -14 -10 -11 -3 3 -2 9 2 15 9 16
15 13 8 -4z m236 1 c9 -11 10 -20 1 -35 -8 -17 -8 -21 4 -21 8 0 17 -3 19 -7
3 -5 -6 -8 -19 -8 -13 0 -24 3 -24 8 0 12 -29 8 -53 -7 -31 -20 -96 -32 -80
-16 6 7 26 14 44 16 18 2 35 7 38 10 3 4 -4 4 -17 1 -12 -3 -19 -1 -16 4 10
16 64 40 75 33 7 -4 9 1 4 15 -7 24 7 28 24 7z m574 -70 c-2 -70 -10 -97 -23
-76 -5 9 -5 17 0 20 5 3 5 12 0 20 -8 12 -10 12 -10 -4 0 -16 -5 -18 -42 -12
-24 4 -50 13 -58 21 -12 13 -11 15 15 15 22 1 40 12 65 40 19 21 40 38 45 36
6 -1 9 -29 8 -60z m-2369 28 c3 -8 2 -12 -4 -9 -6 3 -10 10 -10 16 0 14 7 11
14 -7z m653 -16 c-3 -7 -5 -2 -5 12 0 14 2 19 5 13 2 -7 2 -19 0 -25z m968 12
c3 -5 -3 -10 -15 -10 -12 0 -18 5 -15 10 3 6 10 10 15 10 5 0 12 -4 15 -10z
m-1210 -51 c-6 -29 -15 -37 -15 -12 0 17 8 33 16 33 2 0 1 -10 -1 -21z m249
-22 c2 -20 0 -39 -5 -42 -5 -4 -9 1 -9 10 0 9 -4 14 -9 11 -11 -7 -23 22 -15
35 3 5 10 7 15 3 5 -3 9 -2 8 3 -2 14 1 27 6 22 2 -3 6 -22 9 -42z m166 22 c0
-5 -4 -9 -10 -9 -5 0 -10 7 -10 16 0 8 5 12 10 9 6 -3 10 -10 10 -16z m537
-11 c-3 -7 -5 -2 -5 12 0 14 2 19 5 13 2 -7 2 -19 0 -25z m542 28 c-11 -9 -69
-15 -64 -6 3 6 20 10 37 10 17 0 29 -2 27 -4z m-82 -12 c-3 -3 -12 -4 -19 -1
-8 3 -5 6 6 6 11 1 17 -2 13 -5z m64 -21 c1 -17 2 -17 6 0 6 24 23 11 23 -18
0 -13 4 -26 9 -29 5 -3 12 -23 16 -43 l7 -38 21 48 c20 46 23 48 56 45 27 -2
37 -8 40 -23 2 -11 8 -23 14 -26 5 -4 1 -12 -12 -18 -27 -15 -27 -48 -1 -56
30 -10 73 -52 65 -65 -4 -6 -3 -16 2 -23 5 -7 10 -23 11 -37 1 -13 8 -30 17
-36 8 -6 15 -19 15 -28 0 -9 5 -16 12 -16 7 0 5 -5 -5 -12 -25 -20 -55 -108
-36 -108 4 0 10 -7 13 -16 4 -9 2 -13 -5 -8 -7 4 -7 -1 1 -16 10 -18 9 -21 -1
-15 -9 6 -11 3 -6 -8 3 -9 -5 -32 -19 -53 -19 -27 -24 -44 -19 -63 14 -53 15
-71 5 -71 -5 0 -9 -5 -8 -11 2 -6 -3 -14 -11 -17 -8 -3 -11 0 -7 7 5 7 1 9 -9
5 -9 -4 -22 1 -31 12 -9 11 -13 13 -9 7 4 -8 0 -13 -9 -13 -26 0 -65 22 -71
40 -7 23 -77 78 -110 86 -17 4 -30 17 -36 34 -6 15 -21 33 -34 40 -30 16 -49
3 -65 -46 -6 -19 -16 -34 -21 -34 -6 0 -8 -4 -5 -9 4 -5 0 -11 -6 -14 -13 -4
-37 20 -37 38 0 6 6 2 13 -7 12 -16 14 -16 26 7 7 14 10 28 7 32 -4 3 -7 -1
-7 -10 0 -9 -5 -19 -12 -23 -8 -5 -9 -2 -5 9 4 11 1 17 -7 17 -8 0 -16 -7 -20
-15 -3 -8 -11 -15 -18 -15 -21 -1 -58 -34 -62 -56 -4 -17 1 -21 20 -21 13 0
24 3 24 8 0 5 -5 9 -11 9 -8 0 -8 5 1 15 19 23 33 18 26 -9 -4 -15 -1 -26 7
-29 8 -4 6 -6 -4 -6 -24 -1 -51 -35 -43 -55 4 -11 2 -16 -7 -14 -8 2 -13 -4
-13 -14 1 -10 -2 -15 -7 -12 -5 3 -12 -2 -15 -10 -3 -9 -14 -16 -24 -16 -10 0
-20 -7 -24 -15 -3 -8 -12 -15 -19 -15 -8 0 -20 -6 -26 -14 -11 -13 -41 -15
-130 -7 -8 1 -11 7 -7 17 3 8 2 12 -4 9 -6 -3 -10 2 -10 11 0 10 3 14 7 11 3
-4 12 -2 18 3 15 12 65 -3 65 -20 0 -5 7 -10 16 -10 14 0 14 3 4 15 -11 13
-10 14 1 10 10 -4 15 2 16 17 2 15 -1 18 -6 10 -6 -10 -10 -10 -21 3 -10 12
-16 13 -28 3 -14 -11 -15 -10 -8 7 15 36 12 60 -6 59 -20 -2 -20 -2 -12 20 3
9 11 16 16 16 18 0 70 60 65 74 -3 7 1 13 9 13 8 0 14 -6 14 -12 0 -7 7 -18
16 -26 13 -10 17 -10 23 0 7 10 13 10 29 2 25 -14 43 -14 22 -1 -8 5 -10 10
-4 10 6 0 11 7 11 15 0 20 -16 19 -23 0 -6 -14 -8 -13 -19 2 -12 16 -10 19 8
27 19 8 20 10 5 13 -29 7 -21 20 15 26 48 8 66 12 73 19 3 4 12 4 20 1 8 -3
14 1 14 8 -1 15 -30 58 -30 44 0 -5 -6 0 -14 11 -13 17 -12 20 1 28 11 6 22 0
39 -20 20 -24 25 -27 34 -14 13 20 13 21 -15 53 -18 20 -31 26 -45 22 -14 -5
-20 -2 -20 10 0 9 -4 14 -9 11 -5 -3 -12 6 -16 22 l-7 27 -19 -24 c-13 -16
-18 -33 -15 -47 3 -12 0 -35 -7 -50 -9 -22 -19 -29 -42 -30 -35 0 -88 -9 -127
-19 -25 -6 -32 -16 -30 -36 1 -4 -8 -4 -20 -1 -15 4 -19 2 -13 -7 4 -7 20 -11
35 -9 22 3 29 -1 40 -25 13 -31 4 -46 -29 -47 -7 0 -11 -6 -8 -13 3 -8 -5 -14
-21 -15 -30 -2 -56 -22 -29 -22 9 0 17 -5 17 -11 0 -5 -6 -7 -12 -3 -10 6 -10
5 -1 -8 14 -17 6 -31 -11 -20 -6 4 -18 7 -27 7 -8 0 -24 8 -33 18 -16 16 -17
20 -4 30 15 12 38 99 38 142 0 13 -12 37 -26 54 -24 29 -24 31 -6 31 11 0 22
7 26 15 3 8 12 15 21 15 10 0 15 10 15 31 0 16 3 28 8 26 4 -3 7 8 7 24 0 17
-5 29 -12 29 -8 0 -13 13 -13 30 0 29 -1 30 -50 30 -36 0 -50 -4 -50 -14 0 -7
-6 -19 -14 -25 -11 -9 -13 -6 -10 16 2 16 4 47 5 69 1 23 5 47 8 53 4 6 36 12
72 14 35 1 70 6 78 11 8 5 16 4 20 -3 5 -7 17 -8 40 -1 35 10 55 5 46 -11 -4
-5 3 -9 14 -9 11 0 23 5 26 10 3 6 11 10 16 10 6 0 7 -4 4 -10 -9 -14 19 -12
33 2 9 9 12 9 12 0 0 -43 89 24 91 69 l0 24 10 -23 c5 -13 13 -21 19 -17 8 5
12 -6 25 -67 5 -28 -3 -21 -20 15 l-15 32 3 -32 c2 -18 0 -33 -4 -33 -5 0 -6
-7 -2 -16 3 -9 1 -19 -6 -23 -8 -5 -1 -27 24 -74 40 -75 40 -76 21 -73 -20 3
-47 27 -67 60 -15 25 -19 27 -25 13 -3 -9 -12 -17 -20 -17 -9 0 -14 -11 -14
-27 0 -23 2 -25 11 -13 7 10 12 11 15 4 9 -21 34 -49 32 -35 -6 28 18 20 41
-14 13 -19 27 -32 32 -29 5 3 7 -1 4 -8 -4 -12 37 -68 50 -68 3 0 6 8 6 18 1
15 2 14 6 -2 4 -15 7 -16 14 -5 7 11 9 10 9 -4 0 -10 5 -15 10 -12 6 4 10 14
9 23 -2 29 0 32 24 23 16 -6 27 -3 39 9 17 16 17 18 -3 38 -11 12 -15 22 -10
22 6 0 14 -8 19 -17 12 -21 42 -26 42 -7 0 9 5 12 10 9 6 -3 10 -2 10 4 0 6 8
8 18 4 9 -3 14 -3 10 2 -4 4 1 19 12 33 11 13 17 29 13 35 -4 6 -11 3 -20 -8
-7 -11 -13 -15 -13 -9 0 5 -5 1 -11 -8 -12 -22 -29 -23 -29 -3 0 8 -4 15 -10
15 -5 0 -10 -10 -10 -21 0 -20 -1 -21 -25 -5 -25 17 -26 16 -40 -16 l-14 -33
-1 29 c0 16 -21 67 -47 114 -32 59 -46 96 -45 120 1 19 -3 43 -8 53 -8 14 -6
21 11 30 20 10 21 9 17 -15 -3 -14 -1 -26 4 -26 5 0 6 -5 3 -10 -6 -10 12 -74
26 -95 4 -5 10 -26 13 -45 12 -58 27 -89 42 -84 48 14 47 13 23 34 l-24 19 24
1 c20 0 21 2 11 15 -10 12 -10 15 1 15 8 0 4 7 -9 16 -12 8 -26 13 -32 9 -5
-3 -8 10 -6 32 2 20 9 39 15 41 6 2 8 9 5 14 -4 6 -2 8 3 5 15 -10 22 -56 9
-61 -14 -6 14 -27 29 -22 6 2 9 25 7 52 -2 32 1 44 7 35 5 -7 15 -11 22 -9 9
3 -2 13 -26 26 -22 12 -37 22 -32 23 4 1 12 3 17 4 6 1 18 3 28 4 15 2 14 3
-3 10 -11 5 -26 6 -32 4 -7 -3 -13 2 -13 11 0 9 5 16 12 16 13 0 2 14 -13 16
-24 4 -21 7 11 14 55 12 60 11 61 -7z m-1701 -14 c0 -5 -7 -9 -15 -9 -9 0 -18
-6 -21 -14 -3 -8 -12 -12 -19 -9 -23 8 11 52 35 46 11 -3 20 -9 20 -14z m789
-1 c8 -22 3 -44 -18 -93 -5 -11 -11 -27 -14 -36 -5 -14 -11 -15 -41 -5 -22 6
-30 13 -23 18 7 4 8 8 2 8 -5 0 -2 5 8 11 9 6 26 7 37 4 16 -5 20 -2 20 15 0
32 -19 62 -36 56 -8 -3 -13 -2 -11 2 2 4 7 15 10 25 10 26 56 22 66 -5z m-609
-29 c0 -11 -29 -19 -45 -13 -12 5 -13 10 -4 20 6 8 15 11 20 8 5 -3 6 3 3 13
-5 16 -4 16 10 -1 9 -11 16 -23 16 -27z m-183 5 c-3 -3 -12 -4 -19 -1 -8 3 -5
6 6 6 11 1 17 -2 13 -5z m263 -40 c0 -8 -4 -12 -10 -9 -5 3 -10 13 -10 21 0 8
5 12 10 9 6 -3 10 -13 10 -21z m423 -4 c15 -13 -5 -39 -35 -45 -16 -4 -32 -15
-36 -24 -13 -34 -61 -81 -81 -81 -24 0 -29 38 -8 59 10 10 8 11 -7 5 -17 -6
-17 -5 -5 17 7 13 12 30 11 37 -3 14 16 36 38 44 19 7 112 -2 123 -12z m-223
-29 c14 -27 13 -51 -4 -51 -13 0 -26 28 -26 58 0 19 18 14 30 -7z m-40 -28
c-1 -24 -2 -26 -11 -10 -5 9 -7 22 -4 27 10 17 15 11 15 -17z m70 17 c0 -5 -2
-10 -4 -10 -3 0 -8 5 -11 10 -3 6 -1 10 4 10 6 0 11 -4 11 -10z m30 -4 c0 -3
-4 -8 -10 -11 -5 -3 -10 -1 -10 4 0 6 5 11 10 11 6 0 10 -2 10 -4z m1436 -32
c-3 -9 -6 -18 -6 -21 0 -3 -7 0 -15 7 -13 11 -13 15 -3 21 21 13 31 10 24 -7z
m-489 -26 c-3 -8 -6 -5 -6 6 -1 11 2 17 5 13 3 -3 4 -12 1 -19z m-807 -63 c0
-4 -8 -4 -18 -1 -12 4 -30 -7 -57 -34 -36 -36 -75 -53 -75 -31 0 8 77 100 95
113 9 7 55 -33 55 -47z m55 45 c-3 -6 1 -13 9 -16 9 -3 16 -11 16 -16 0 -6 -8
-4 -17 3 -15 12 -16 12 -10 -5 6 -16 5 -17 -8 -6 -24 20 -18 41 13 49 2 1 0
-4 -3 -9z m-1012 -18 c-2 -7 3 -12 11 -12 21 0 30 -18 17 -34 -6 -7 -8 -16 -4
-19 3 -4 -1 -7 -11 -7 -9 0 -14 5 -11 10 3 6 1 10 -4 10 -6 0 -11 9 -11 19 0
11 -4 23 -10 26 -17 10 -11 27 8 23 9 -2 16 -10 15 -16z m1131 -8 c3 -8 2 -12
-4 -9 -6 3 -10 10 -10 16 0 14 7 11 14 -7z m771 -23 c-3 -6 -11 -8 -17 -5 -6
4 -5 9 3 15 16 10 23 4 14 -10z m-1118 -13 c-3 -8 -6 -5 -6 6 -1 11 2 17 5 13
3 -3 4 -12 1 -19z m191 -26 c-3 -17 -22 -30 -45 -31 -20 -1 -15 16 9 38 23 22
40 19 36 -7z m867 -38 c9 -24 14 -50 12 -57 -3 -6 -6 -2 -6 11 -1 15 -5 21
-13 16 -7 -4 -8 -3 -4 4 4 6 0 24 -9 39 l-15 28 6 -30 c6 -33 -8 -18 -20 22
-6 18 -3 20 13 16 11 -3 26 -23 36 -49z m-1397 28 c6 -18 -15 -14 -22 4 -4 10
-1 14 6 12 6 -2 14 -10 16 -16z m-238 -12 c0 -5 -4 -10 -10 -10 -5 0 -10 5
-10 10 0 6 5 10 10 10 6 0 10 -4 10 -10z m83 -23 c26 -10 21 -30 -5 -22 -13 4
-25 7 -28 7 -22 0 -29 -4 -24 -16 4 -11 0 -13 -15 -9 -11 3 -18 9 -15 14 3 5
-1 9 -9 9 -8 0 -20 7 -27 15 -9 10 -9 15 -1 15 6 0 11 -5 11 -10 0 -12 60 -3
74 10 6 6 12 6 15 2 3 -5 14 -11 24 -15z m78 3 l24 -20 -27 10 c-19 6 -28 6
-28 -1 0 -6 -4 -8 -10 -4 -10 6 -2 35 10 35 4 0 18 -9 31 -20z m405 5 c4 -8
17 -15 30 -15 13 0 24 -4 24 -10 0 -5 -11 -10 -25 -10 -17 0 -28 -9 -39 -32
-11 -24 -23 -33 -41 -34 -21 -2 -25 2 -20 16 3 10 0 24 -8 32 -12 11 -9 17 22
40 42 32 50 34 57 13z m-646 -12 c-8 -3 -24 -13 -35 -22 -20 -16 -20 -16 -1 7
11 12 26 22 35 21 14 0 14 -1 1 -6z m-165 -10 c-31 -8 -43 -22 -38 -44 9 -31
20 -31 15 2 -4 24 -1 29 16 29 25 0 35 -35 15 -55 -12 -13 -12 -15 0 -15 8 0
17 -9 20 -20 3 -11 12 -20 20 -20 25 0 29 17 9 32 -22 15 -37 98 -18 98 21 0
46 -40 46 -75 0 -19 5 -35 11 -35 8 0 8 -5 -1 -15 -7 -8 -19 -15 -26 -15 -8 0
-14 -4 -14 -10 0 -5 -9 -1 -21 11 -14 14 -29 19 -46 16 -17 -3 -21 -1 -14 6
19 19 12 30 -16 23 -16 -3 -39 -9 -53 -12 -14 -3 -36 -12 -50 -21 -14 -9 -22
-12 -18 -8 8 8 -19 34 -35 35 -5 0 -6 -10 -3 -22 l6 -23 -11 23 c-7 12 -21 22
-33 23 -12 1 -7 4 14 9 24 6 40 5 50 -4 16 -13 20 -14 68 -2 28 7 32 11 26 29
-6 20 -5 21 12 7 10 -8 16 -11 12 -6 -3 4 -2 21 4 37 8 24 15 29 41 28 22 -1
25 -3 12 -6z m1805 -24 c0 -6 -4 -7 -10 -4 -5 3 -10 11 -10 16 0 6 5 7 10 4 6
-3 10 -11 10 -16z m50 -14 c0 -5 -5 -3 -10 5 -5 8 -10 20 -10 25 0 6 5 3 10
-5 5 -8 10 -19 10 -25z m-1953 -22 c-3 -10 -5 -2 -5 17 0 19 2 27 5 18 2 -10
2 -26 0 -35z m1029 3 c25 -7 34 -27 12 -25 -27 1 -43 15 -45 39 -1 14 1 18 3
8 3 -9 16 -19 30 -22z m39 24 c3 -5 -3 -10 -15 -10 -12 0 -18 5 -15 10 3 6 10
10 15 10 5 0 12 -4 15 -10z m398 -4 c3 -8 3 -17 0 -20 -9 -9 -34 15 -27 25 8
13 21 11 27 -5z m-766 -16 c1 0 0 -6 -3 -13 -6 -17 23 -87 36 -87 6 0 10 5 10
10 0 22 2 26 22 47 16 17 24 19 37 11 16 -10 15 -13 -9 -40 -15 -16 -40 -32
-56 -37 -19 -5 -30 -15 -32 -29 -2 -14 -13 -24 -29 -28 -18 -5 -21 -9 -11 -15
19 -13 3 -11 -27 3 -27 12 -30 25 -26 118 4 70 13 81 54 69 18 -5 33 -9 34 -9z
m625 -17 c1 -16 1 -43 -1 -61 -1 -19 2 -39 7 -45 4 -7 8 -21 8 -32 -1 -15 -8
-20 -28 -20 -14 1 -25 -2 -22 -6 2 -4 -2 -9 -10 -12 -8 -3 -18 5 -25 19 -15
34 -14 42 9 49 11 4 18 11 15 16 -4 5 1 9 9 9 21 0 20 17 0 28 -14 8 -14 12 0
45 18 44 35 48 38 10z m1141 1 c-5 -13 -23 -20 -23 -10 0 2 -3 11 -6 19 -4 12
0 14 15 10 12 -3 17 -11 14 -19z m-1513 6 c0 -5 -9 -14 -19 -19 -16 -9 -18 -8
-14 9 5 20 33 29 33 10z m-674 -85 l-14 -50 -1 47 c-1 45 -2 46 -38 56 l-38
10 42 1 c23 1 45 7 50 14 14 22 14 -25 -1 -78z m464 60 c-27 -14 -36 -13 -25
4 3 6 16 11 28 11 21 -1 21 -1 -3 -15z m222 -2 c-6 -2 -10 -9 -7 -13 3 -5 1
-11 -5 -15 -5 -3 -10 0 -10 8 0 17 10 27 24 26 6 0 5 -3 -2 -6z m1513 -37 c-9
-13 -23 -27 -31 -30 -9 -3 -3 7 13 24 34 36 39 38 18 6z m-2450 -48 c-4 -24
-13 -54 -20 -68 -13 -24 -13 -22 -9 18 2 27 0 41 -6 37 -6 -3 -10 5 -10 19 0
24 11 34 38 35 11 1 12 -9 7 -41z m824 11 c-23 -20 -33 -24 -26 -11 2 4 7 15
10 24 4 11 12 15 22 12 13 -5 12 -9 -6 -25z m-759 -29 c0 -22 -4 -40 -8 -40
-10 0 -14 59 -6 72 10 16 14 7 14 -32z m27 -22 c-2 -13 -4 -3 -4 22 0 25 2 35
4 23 2 -13 2 -33 0 -45z m308 21 c0 -19 3 -39 7 -44 4 -6 3 -17 -2 -24 -11
-19 9 -71 27 -71 12 0 14 -7 9 -31 -3 -17 -6 -42 -6 -55 0 -34 -13 -30 -28 8
-9 24 -9 34 0 39 16 10 -10 42 -29 35 -16 -7 -16 -6 1 35 15 39 11 97 -10 120
-20 22 -17 29 9 25 18 -2 22 -9 22 -37z m1254 27 c10 -11 8 -16 -9 -21 -26 -8
-33 -3 -24 19 8 20 18 20 33 2z m-1092 -38 c-3 -7 -5 -2 -5 12 0 14 2 19 5 13
2 -7 2 -19 0 -25z m1153 22 c0 -5 -4 -10 -8 -10 -5 0 -14 -11 -20 -25 -7 -15
-20 -25 -32 -25 -12 0 -18 5 -15 10 3 6 1 10 -4 10 -6 0 -11 5 -11 10 0 14 37
12 43 -2 2 -7 8 -1 12 15 7 25 35 39 35 17z m-1240 -10 c13 -9 13 -10 0 -10
-8 0 -22 5 -30 10 -13 9 -13 10 0 10 8 0 22 -5 30 -10z m880 -11 c0 -5 -4 -9
-10 -9 -5 0 -10 7 -10 16 0 8 5 12 10 9 6 -3 10 -10 10 -16z m-1029 -22 c-10
-9 -11 -8 -5 6 3 10 9 15 12 12 3 -3 0 -11 -7 -18z m705 -14 c-10 -10 -19 5
-10 18 6 11 8 11 12 0 2 -7 1 -15 -2 -18z m1409 -3 c-4 -12 -9 -19 -12 -17 -3
3 -2 15 2 27 4 12 9 19 12 17 3 -3 2 -15 -2 -27z m-1100 10 c3 -5 -1 -10 -10
-10 -9 0 -13 5 -10 10 3 6 8 10 10 10 2 0 7 -4 10 -10z m-965 -45 c0 -15 -27
-28 -42 -19 -5 3 -2 14 8 25 18 20 34 17 34 -6z m935 19 c13 -5 14 -8 3 -15
-19 -13 -28 -11 -28 6 0 17 2 18 25 9z m-1377 -21 c-10 -2 -26 -2 -35 0 -10 3
-2 5 17 5 19 0 27 -2 18 -5z m1660 -21 c6 -18 -15 -14 -22 4 -4 10 -1 14 6 12
6 -2 14 -10 16 -16z m-1054 -84 c4 -28 13 -63 21 -78 8 -15 11 -30 8 -34 -4
-3 0 -6 7 -6 7 0 10 -3 7 -7 -4 -3 -2 -12 5 -20 15 -18 8 -21 -27 -12 -33 9
-65 64 -42 72 9 3 9 10 0 28 -6 14 -9 37 -6 52 3 16 -1 37 -11 51 -11 18 -12
26 -3 29 19 7 34 -19 41 -75z m-557 50 c25 -28 21 -96 -7 -121 -11 -9 -11 -8
0 7 14 18 13 19 -12 12 -17 -4 -28 -2 -28 4 0 5 5 10 11 10 5 0 7 5 4 11 -4 6
-13 8 -21 5 -17 -6 -29 10 -12 17 9 4 10 8 2 14 -14 10 -9 43 8 54 21 14 33
11 55 -13z m1963 18 c0 -2 -6 -9 -14 -15 -11 -9 -16 -9 -22 0 -4 8 -3 9 4 5 7
-4 12 -2 12 3 0 6 5 11 10 11 6 0 10 -2 10 -4z m-1606 -91 c-4 -8 -8 -15 -10
-15 -2 0 -4 7 -4 15 0 8 4 15 10 15 5 0 7 -7 4 -15z m617 -14 c10 -13 19 -29
19 -37 0 -8 5 -14 11 -14 19 0 -2 -20 -39 -37 -20 -9 -40 -19 -44 -21 -3 -2
-18 17 -33 42 -27 46 -45 59 -45 32 0 -8 14 -50 30 -93 26 -66 37 -113 27
-113 -1 0 -17 -4 -36 -10 l-34 -9 7 59 c7 59 6 60 -28 95 -20 19 -42 35 -50
35 -8 0 -16 6 -19 13 -2 6 -8 8 -13 4 -5 -5 -1 -14 9 -22 16 -11 16 -13 2 -19
-9 -3 -14 -10 -10 -16 3 -5 1 -19 -5 -30 -13 -25 -4 -60 16 -60 8 0 14 -6 14
-12 0 -9 2 -10 8 -2 4 6 18 14 32 18 14 3 19 3 11 0 -11 -5 -11 -8 0 -15 11
-7 10 -9 -4 -9 -10 0 -15 -4 -12 -10 3 -5 -1 -10 -10 -10 -9 0 -13 -4 -10 -10
9 -14 -18 -12 -35 3 -12 10 -12 9 0 -6 12 -17 12 -20 -5 -30 -25 -14 -65 -18
-65 -8 0 5 9 15 21 22 20 14 20 14 -15 113 -20 54 -36 102 -36 106 0 4 22 13
49 20 40 9 48 15 44 30 -6 23 4 25 130 25 92 0 100 -2 118 -24z m1211 -19 c10
-8 35 -15 57 -16 22 -1 43 -5 47 -8 3 -4 -7 -5 -22 -4 -35 4 -56 -3 -48 -15 3
-5 1 -9 -5 -9 -5 0 -12 4 -16 10 -3 5 -12 7 -20 4 -9 -4 -17 1 -21 12 -3 11
-10 27 -15 36 -7 14 -5 16 9 11 9 -3 25 -13 34 -21z m-1752 -29 c0 -7 -4 -13
-10 -13 -5 0 -10 12 -10 28 0 21 2 24 10 12 5 -8 10 -21 10 -27z m1130 27 c0
-5 -7 -10 -16 -10 -8 0 -12 5 -9 10 3 6 10 10 16 10 5 0 9 -4 9 -10z m727 4
c-3 -3 -12 -4 -19 -1 -8 3 -5 6 6 6 11 1 17 -2 13 -5z m176 -25 c-6 -23 -23
-15 -23 11 0 12 5 17 14 14 8 -3 12 -13 9 -25z m-139 -3 c-3 -9 -10 -13 -16
-10 -5 3 -4 12 3 20 15 18 22 13 13 -10z m-998 -94 c-29 -46 -44 -58 -57 -45
-5 5 4 22 21 40 17 18 30 37 30 43 0 6 5 8 10 5 6 -4 11 9 12 32 l1 38 4 -37
c3 -27 -3 -47 -21 -76z m1056 75 c-2 -14 2 -35 7 -46 6 -11 8 -22 3 -24 -11
-8 -45 70 -38 88 9 26 31 12 28 -18z m-1902 -28 c0 -5 -4 -9 -10 -9 -5 0 -10
7 -10 16 0 8 5 12 10 9 6 -3 10 -10 10 -16z m33 -1 c7 -25 3 -33 -12 -23 -13
8 -15 45 -2 45 5 0 11 -10 14 -22z m1381 13 c4 -5 -3 -7 -14 -4 -23 6 -26 13
-6 13 8 0 17 -4 20 -9z m-704 -17 c0 -2 -9 -4 -20 -4 -11 0 -20 4 -20 9 0 5 9
7 20 4 11 -3 20 -7 20 -9z m1280 -14 c9 -16 8 -20 -5 -20 -9 0 -13 5 -9 11 3
6 0 15 -7 20 -10 6 -10 9 -2 9 7 0 17 -9 23 -20z m140 1 c0 -6 -4 -12 -8 -15
-5 -3 -9 1 -9 9 0 8 4 15 9 15 4 0 8 -4 8 -9z m-1370 -30 c0 -13 -45 -91 -53
-91 -1 0 -3 19 -4 42 -2 27 3 48 13 59 18 20 44 15 44 -10z m665 19 c3 -5 1
-10 -4 -10 -6 0 -11 5 -11 10 0 6 2 10 4 10 3 0 8 -4 11 -10z m137 -4 c8 -8
26 -28 41 -46 15 -17 31 -28 37 -25 6 4 10 -5 10 -22 l0 -27 16 22 c17 25 31
29 31 8 0 -8 -5 -14 -11 -13 -6 1 -13 -14 -16 -33 l-6 -35 -13 25 c-7 14 -36
47 -65 73 -28 27 -44 45 -36 42 8 -4 6 1 -4 9 -11 9 -25 16 -30 16 -12 0 14
20 26 20 4 0 13 -6 20 -14z m501 -37 c-3 -10 -12 -19 -19 -19 -12 0 -12 4 -2
21 10 17 10 23 1 26 -7 3 -13 9 -13 15 0 6 9 3 19 -6 11 -10 17 -25 14 -37z
m-1019 6 c-4 -8 -8 -15 -10 -15 -2 0 -4 7 -4 15 0 8 4 15 10 15 5 0 7 -7 4
-15z m-979 -5 c-3 -5 -10 -10 -16 -10 -5 0 -9 5 -9 10 0 6 7 10 16 10 8 0 12
-4 9 -10z m605 -9 c0 -5 -7 -11 -15 -15 -15 -5 -20 5 -8 17 9 10 23 9 23 -2z
m-145 -11 c-18 -8 -18 -9 -2 -9 23 -1 12 -21 -11 -21 -10 0 -23 9 -30 20 -11
19 -10 20 25 19 31 0 34 -2 18 -9z m396 -42 c-2 -24 -6 -36 -9 -28 -3 8 -10
18 -16 22 -8 5 -7 8 2 8 6 0 12 8 12 18 0 14 -2 15 -10 2 -5 -8 -12 -11 -17
-7 -4 5 -1 12 7 17 28 18 36 11 31 -32z m816 0 c-3 -8 -6 -5 -6 6 -1 11 2 17
5 13 3 -3 4 -12 1 -19z m-1001 -33 c0 -23 -1 -24 -15 -10 -14 14 -14 17 -1 25
8 5 15 10 16 10 0 0 0 -11 0 -25z m304 -8 c-18 -15 -14 -57 6 -57 8 0 14 9 14
20 0 21 16 26 39 11 11 -7 12 -18 5 -51 -5 -23 -13 -40 -17 -38 -5 2 -14 -8
-21 -21 -11 -20 -14 -21 -19 -7 -4 10 -11 14 -17 11 -6 -4 -7 1 -3 10 3 10 1
20 -4 24 -11 7 -25 103 -14 96 4 -2 13 0 21 6 21 13 28 11 10 -4z m350 3 c0
-5 -5 -10 -11 -10 -5 0 -7 5 -4 10 3 6 8 10 11 10 2 0 4 -4 4 -10z m-1042 -17
c2 -7 -4 -13 -13 -13 -9 0 -19 -9 -22 -19 -4 -14 -12 -19 -31 -16 -15 2 -33 4
-40 4 -19 1 -5 19 32 42 33 21 67 22 74 2z m132 13 c0 -2 -7 -7 -16 -10 -8 -3
-12 -2 -9 4 6 10 25 14 25 6z m870 -13 c0 -10 -42 -53 -53 -53 -4 0 2 13 15
29 22 29 38 39 38 24z m-1490 -31 c0 -15 -2 -15 -10 -2 -13 20 -13 33 0 25 6
-3 10 -14 10 -23z m1538 11 c-4 -22 -22 -20 -26 1 -2 10 3 16 13 16 10 0 15
-7 13 -17z m23 -6 c-10 -9 -11 -8 -5 6 3 10 9 15 12 12 3 -3 0 -11 -7 -18z
m-1531 -8 c0 -5 -4 -9 -10 -9 -5 0 -10 7 -10 16 0 8 5 12 10 9 6 -3 10 -10 10
-16z m1530 -19 c-20 -13 -33 -13 -25 0 3 6 14 10 23 10 15 0 15 -2 2 -10z
m-1422 -19 c3 -9 -2 -11 -17 -6 -12 4 -21 2 -21 -4 0 -6 -7 -11 -15 -11 -17 0
-17 2 -9 24 7 18 56 16 62 -3z m40 -13 c-7 -41 -1 -58 19 -58 11 0 13 -5 8
-17 -4 -10 -11 -34 -15 -53 l-8 -35 -2 40 c-1 22 -4 34 -7 28 -2 -7 -11 -13
-19 -13 -19 0 -19 64 1 84 8 8 15 24 15 35 0 12 3 21 6 21 4 0 4 -15 2 -32z
m329 20 c16 -26 10 -36 -24 -43 -46 -8 -52 -1 -23 30 26 28 35 31 47 13z m853
-9 c0 -5 -4 -9 -10 -9 -5 0 -10 7 -10 16 0 8 5 12 10 9 6 -3 10 -10 10 -16z
m-410 1 c0 -5 -2 -10 -4 -10 -3 0 -8 5 -11 10 -3 6 -1 10 4 10 6 0 11 -4 11
-10z m-895 -47 c-2 -22 1 -33 10 -33 7 0 16 -6 19 -12 3 -7 4 0 1 15 -4 19 -2
26 5 22 5 -3 10 -19 10 -36 0 -28 -2 -29 -42 -28 -24 1 -36 3 -27 6 14 3 15
11 8 41 -12 51 -11 59 5 59 10 0 13 -10 11 -34z m919 18 c3 -5 0 -11 -8 -14
-15 -6 -26 1 -26 15 0 11 27 10 34 -1z m368 -31 c4 0 8 5 8 11 0 5 5 7 10 4
16 -10 12 -73 -5 -87 -9 -7 -23 -19 -31 -27 -11 -10 -18 -11 -27 -2 -8 8 -8
11 2 11 11 0 11 3 0 16 -12 15 -11 16 9 10 22 -7 22 -6 10 13 -11 18 -11 23 1
30 9 6 10 11 2 15 -6 4 -11 17 -10 29 l0 22 11 -22 c6 -13 15 -23 20 -23z
m-1118 15 c-4 -8 -8 -15 -10 -15 -2 0 -4 7 -4 15 0 8 4 15 10 15 5 0 7 -7 4
-15z m843 -7 c-3 -8 -6 -5 -6 6 -1 11 2 17 5 13 3 -3 4 -12 1 -19z m-522 -8
c3 -5 3 -15 -1 -21 -6 -11 -23 6 -24 24 0 10 18 9 25 -3z m1431 -29 c17 14 18
0 1 -21 -13 -17 -62 -26 -52 -10 3 6 13 10 20 10 8 0 13 6 11 13 -1 6 -1 8 2
4 2 -4 10 -3 18 4z m-930 -48 c-2 -3 -15 2 -27 11 l-23 15 25 9 c20 8 25 6 27
-10 2 -11 1 -22 -2 -25z"/>
<path d="M1080 1601 c0 -5 7 -12 16 -15 14 -5 15 -4 4 9 -14 17 -20 19 -20 6z"/>
<path d="M1551 1464 c0 -11 3 -14 6 -6 3 7 2 16 -1 19 -3 4 -6 -2 -5 -13z"/>
<path d="M1487 1456 c-10 -25 -9 -25 13 -21 11 2 20 -2 20 -8 0 -7 4 -6 10 3
5 8 10 20 10 25 0 6 -5 3 -10 -5 -7 -11 -10 -11 -10 -2 0 7 -4 11 -9 8 -5 -4
-11 -1 -13 6 -3 7 -7 5 -11 -6z"/>
<path d="M1470 1410 c0 -5 5 -10 10 -10 6 0 10 5 10 10 0 6 -4 10 -10 10 -5 0
-10 -4 -10 -10z"/>
<path d="M1541 1414 c-1 -6 6 -17 14 -24 13 -10 15 -9 15 11 0 17 -3 20 -9 10
-7 -11 -9 -11 -14 0 -3 8 -6 9 -6 3z"/>
<path d="M1315 1400 c3 -5 8 -10 11 -10 2 0 4 5 4 10 0 6 -5 10 -11 10 -5 0
-7 -4 -4 -10z"/>
<path d="M1470 1375 c0 -8 5 -15 10 -15 6 0 10 7 10 15 0 8 -4 15 -10 15 -5 0
-10 -7 -10 -15z"/>
<path d="M1530 1380 c0 -5 5 -10 11 -10 5 0 7 5 4 10 -3 6 -8 10 -11 10 -2 0
-4 -4 -4 -10z"/>
<path d="M2288 1303 c6 -2 18 -2 25 0 6 3 1 5 -13 5 -14 0 -19 -2 -12 -5z"/>
<path d="M1680 1188 c-2 -5 -3 -11 -4 -15 -1 -5 -5 -14 -9 -20 -5 -9 -3 -13 7
-13 12 0 16 -10 16 -39 0 -22 4 -42 8 -45 5 -3 5 23 0 57 -8 63 -15 88 -18 75z"/>
<path d="M1738 1183 c7 -3 16 -2 19 1 4 3 -2 6 -13 5 -11 0 -14 -3 -6 -6z"/>
<path d="M1846 1142 c-2 -4 4 -8 14 -8 10 0 16 4 14 8 -3 4 -9 8 -14 8 -5 0
-11 -4 -14 -8z"/>
<path d="M1655 1120 c3 -5 8 -10 11 -10 2 0 4 5 4 10 0 6 -5 10 -11 10 -5 0
-7 -4 -4 -10z"/>
<path d="M1950 751 c0 -5 7 -11 15 -15 9 -3 15 0 15 9 0 8 -7 15 -15 15 -8 0
-15 -4 -15 -9z"/>
<path d="M1636 649 c12 -13 20 -16 22 -9 3 7 -2 16 -9 21 -25 16 -32 9 -13
-12z"/>
<path d="M1844 602 c5 -8 2 -10 -8 -6 -19 7 -21 -9 -3 -24 8 -6 28 -5 61 5 36
11 46 17 35 24 -20 13 -42 11 -33 -3 5 -8 2 -9 -9 -5 -10 4 -24 10 -34 14 -11
4 -14 3 -9 -5z"/>
<path d="M135 610 c3 -5 13 -10 21 -10 8 0 12 5 9 10 -3 6 -13 10 -21 10 -8 0
-12 -4 -9 -10z"/>
<path d="M1368 1763 c7 -3 16 -2 19 1 4 3 -2 6 -13 5 -11 0 -14 -3 -6 -6z"/>
<path d="M270 1730 c-6 -11 -19 -20 -30 -20 -26 0 -32 -14 -15 -36 11 -15 14
-16 15 -4 0 13 1 13 10 0 9 -13 11 -13 21 0 8 11 12 12 16 3 2 -7 13 -13 24
-13 10 0 19 -5 19 -11 0 -8 5 -8 15 1 8 7 15 21 15 32 0 10 4 16 10 13 5 -3 7
0 4 8 -8 21 -34 16 -34 -7 0 -20 0 -20 -14 -1 -7 11 -16 29 -19 40 -4 18 -5
17 -6 -3 0 -13 -5 -21 -11 -17 -5 3 -7 12 -3 20 8 22 -5 18 -17 -5z"/>
<path d="M566 1731 c-4 -5 2 -7 12 -4 12 3 18 -2 19 -17 1 -12 -2 -18 -9 -14
-6 4 -9 1 -6 -7 3 -9 -7 -18 -26 -24 -22 -7 -32 -17 -34 -35 -2 -14 -11 -33
-19 -42 -20 -22 -7 -44 15 -26 12 10 14 10 8 1 -11 -19 11 -16 32 5 10 10 17
32 17 52 0 31 3 35 25 35 23 0 25 4 22 35 -2 19 -6 38 -9 43 -6 10 -41 9 -47
-2z m-9 -111 c2 -20 -8 -26 -20 -13 -4 3 -2 12 4 20 15 17 14 17 16 -7z"/>
<path d="M1870 1670 c0 -5 5 -10 11 -10 5 0 7 5 4 10 -3 6 -8 10 -11 10 -2 0
-4 -4 -4 -10z"/>
<path d="M270 1630 c0 -5 5 -10 10 -10 6 0 10 5 10 10 0 6 -4 10 -10 10 -5 0
-10 -4 -10 -10z"/>
<path d="M60 1622 c0 -7 -7 -12 -16 -12 -8 0 -12 -5 -8 -11 4 -7 11 -6 22 5 9
8 13 19 9 22 -4 4 -7 2 -7 -4z"/>
<path d="M391 1614 c0 -11 3 -14 6 -6 3 7 2 16 -1 19 -3 4 -6 -2 -5 -13z"/>
<path d="M190 1602 c0 -23 -35 -56 -49 -48 -5 4 -13 1 -17 -5 -4 -7 7 -22 25
-36 34 -27 40 -48 15 -57 -23 -9 -24 -8 -24 13 0 11 -4 23 -10 26 -6 4 -10 -5
-10 -19 0 -14 -4 -26 -10 -26 -5 0 -10 5 -10 12 0 6 -7 3 -15 -8 -13 -17 -14
-17 -15 -1 0 24 -30 21 -30 -4 0 -11 -4 -18 -9 -15 -5 3 -8 40 -6 81 2 59 0
75 -11 75 -11 0 -14 -30 -13 -162 1 -90 4 -153 6 -140 5 25 4 24 55 27 37 2
51 -9 26 -18 -7 -2 -10 -7 -7 -11 3 -3 15 3 26 14 12 10 23 17 26 14 2 -3 8 7
11 21 5 21 11 25 28 19 13 -4 18 -2 14 4 -4 6 2 8 14 5 19 -5 25 4 21 34 -1 6
7 11 18 10 17 -1 18 -4 7 -17 -7 -8 -16 -24 -19 -35 -6 -18 -5 -17 9 3 18 25
54 30 54 8 0 -8 -10 -17 -22 -19 -16 -4 -13 -5 7 -4 23 2 31 7 33 25 2 15 -2
22 -13 22 -19 0 -15 22 5 28 8 3 10 0 5 -9 -5 -8 -4 -11 1 -6 5 5 10 13 10 18
1 5 2 13 3 18 0 5 11 12 24 14 19 4 19 4 -5 6 -23 1 -28 7 -36 44 -5 23 -5 50
0 59 6 13 1 20 -22 31 -28 14 -29 14 -21 -2 5 -9 8 -30 5 -47 -6 -36 -5 -105
2 -116 3 -4 0 -8 -5 -8 -6 0 -11 5 -11 12 0 6 -9 3 -20 -7 -16 -14 -24 -16
-42 -7 -13 6 -17 11 -10 11 6 1 12 12 12 25 0 13 6 29 14 35 11 10 16 6 25
-16 l11 -28 -6 30 c-3 17 -8 42 -11 58 -3 16 -1 27 6 27 6 0 11 -4 11 -10 0
-5 4 -10 9 -10 16 0 5 32 -14 42 -13 8 -16 7 -11 -1 4 -7 0 -11 -12 -11 -15 0
-18 5 -14 25 2 14 2 25 -2 25 -3 0 -6 -8 -6 -18z m-99 -233 c16 -30 -4 -47
-23 -20 -8 12 -18 18 -21 14 -4 -3 -7 1 -7 10 0 24 37 21 51 -4z"/>
<path d="M324 1606 c-8 -22 3 -33 18 -18 9 9 9 15 0 24 -9 9 -13 7 -18 -6z"/>
<path d="M802 1600 c0 -14 2 -19 5 -12 2 6 2 18 0 25 -3 6 -5 1 -5 -13z"/>
<path d="M80 1606 c0 -9 39 -13 51 -5 10 6 4 9 -18 9 -18 0 -33 -2 -33 -4z"/>
<path d="M772 1593 c-15 -31 -15 -103 1 -103 20 0 27 36 12 57 -9 12 -10 23
-3 36 5 10 7 21 5 24 -3 2 -10 -4 -15 -14z"/>
<path d="M90 1560 c0 -5 5 -10 10 -10 6 0 10 5 10 10 0 6 -4 10 -10 10 -5 0
-10 -4 -10 -10z"/>
<path d="M737 1553 c-10 -9 -9 -23 1 -23 5 0 9 7 9 15 0 17 -1 18 -10 8z"/>
<path d="M1780 1524 c0 -8 5 -12 10 -9 6 3 10 10 10 16 0 5 -4 9 -10 9 -5 0
-10 -7 -10 -16z"/>
<path d="M1805 1503 c-19 -10 -25 -18 -16 -21 7 -2 23 5 34 17 25 25 22 26
-18 4z"/>
<path d="M720 1451 c0 -6 5 -13 10 -16 6 -3 10 1 10 9 0 9 -4 16 -10 16 -5 0
-10 -4 -10 -9z"/>
<path d="M331 1404 c0 -11 3 -14 6 -6 3 7 2 16 -1 19 -3 4 -6 -2 -5 -13z"/>
<path d="M342 1324 c-7 -8 -8 -14 -3 -14 10 0 25 19 20 25 -2 1 -10 -3 -17
-11z"/>
<path d="M271 1325 c1 -5 0 -17 -4 -25 -13 -35 -29 -122 -23 -128 13 -12 26
23 26 69 0 25 5 50 12 57 9 9 9 15 -1 25 -7 6 -11 8 -10 2z"/>
<path d="M163 1298 c1 -17 -3 -23 -15 -22 -10 1 -16 -2 -13 -6 3 -5 0 -10 -7
-12 -7 -3 -5 -7 6 -11 11 -5 15 -3 10 5 -5 7 -2 9 9 5 9 -3 18 1 21 9 9 24 7
54 -4 54 -5 0 -9 -10 -7 -22z"/>
<path d="M38 1293 c7 -3 16 -2 19 1 4 3 -2 6 -13 5 -11 0 -14 -3 -6 -6z"/>
<path d="M187 1265 c-4 -8 -2 -17 3 -20 6 -4 10 3 10 14 0 25 -6 27 -13 6z"/>
<path d="M50 1255 c0 -8 2 -15 4 -15 2 0 6 7 10 15 3 8 1 15 -4 15 -6 0 -10
-7 -10 -15z"/>
<path d="M0 1252 c0 -18 28 -45 39 -37 9 5 7 12 -8 26 -22 20 -31 24 -31 11z"/>
<path d="M323 1205 c0 -22 2 -30 4 -17 2 12 2 30 0 40 -3 9 -5 -1 -4 -23z"/>
<path d="M505 1220 c4 -6 11 -8 16 -5 14 9 11 15 -7 15 -8 0 -12 -5 -9 -10z"/>
<path d="M763 1213 c-7 -2 -13 -9 -13 -15 0 -6 7 -8 15 -5 8 4 17 2 20 -3 4
-6 -9 -11 -27 -11 l-33 -1 30 -8 30 -9 -30 2 c-24 2 -30 6 -29 24 0 12 -3 20
-8 17 -4 -3 -8 -19 -8 -35 0 -18 4 -28 10 -24 6 3 10 2 10 -3 0 -5 11 -7 25
-4 18 3 25 0 25 -12 0 -9 -8 -16 -17 -16 -15 0 -15 -2 -4 -9 22 -14 39 -2 46
30 4 16 10 27 15 24 4 -3 11 2 14 11 10 26 7 41 -9 41 -11 0 -13 -6 -9 -21 6
-17 3 -16 -17 6 -13 14 -30 24 -36 21z"/>
<path d="M120 1198 c0 -9 5 -20 10 -23 13 -8 13 5 0 25 -8 13 -10 13 -10 -2z"/>
<path d="M530 1196 c0 -19 -11 -21 -28 -4 -9 9 -12 7 -12 -9 0 -12 5 -25 10
-28 6 -4 7 -11 4 -17 -4 -7 -2 -8 5 -4 19 12 42 64 31 71 -6 3 -10 -1 -10 -9z"/>
<path d="M606 1164 c-20 -43 -11 -58 28 -48 27 7 37 34 11 34 -14 0 -19 11
-16 38 3 21 -5 13 -23 -24z m21 -40 c-3 -3 -12 -4 -19 -1 -8 3 -5 6 6 6 11 1
17 -2 13 -5z"/>
<path d="M329 643 c-1 -5 -1 -12 0 -17 1 -6 -1 -21 -4 -35 l-7 -26 -15 28 c-8
16 -17 27 -20 24 -2 -3 3 -17 13 -32 17 -25 19 -26 31 -9 12 17 19 74 8 74 -3
0 -6 -3 -6 -7z"/>
<path d="M327 546 c-4 -10 -1 -13 9 -9 15 6 19 23 5 23 -5 0 -11 -7 -14 -14z"/>
<path d="M325 510 c-19 -8 -19 -9 3 -9 12 -1 22 4 22 9 0 6 -1 10 -2 9 -2 0
-12 -4 -23 -9z"/>
<path d="M431 443 c0 -13 -5 -23 -11 -23 -5 0 -10 -7 -10 -16 0 -14 1 -14 16
0 20 21 31 20 43 -1 9 -17 10 -17 17 1 7 20 -12 39 -33 31 -6 -2 -14 4 -16 13
-3 12 -5 11 -6 -5z"/>
<path d="M620 389 c0 -5 5 -7 10 -4 6 3 10 8 10 11 0 2 -4 4 -10 4 -5 0 -10
-5 -10 -11z"/>
<path d="M585 382 c-5 -4 -11 -18 -13 -32 l-3 -25 20 25 c28 34 25 54 -4 32z"/>
<path d="M2601 347 c-1 -10 10 -21 25 -27 32 -13 37 -12 29 0 -3 6 -15 10 -25
10 -10 0 -21 8 -23 18 -4 16 -5 16 -6 -1z"/>
<path d="M382 265 c0 -16 2 -22 5 -12 2 9 2 23 0 30 -3 6 -5 -1 -5 -18z"/>
<path d="M200 250 c-13 -8 -12 -10 4 -10 10 0 25 -8 32 -17 12 -16 13 -15 14
10 0 29 -21 36 -50 17z"/>
<path d="M125 241 c-3 -5 8 -9 24 -9 17 1 28 5 25 10 -7 11 -41 10 -49 -1z"/>
<path d="M2620 230 c0 -11 4 -20 9 -20 5 0 7 9 4 20 -3 11 -7 20 -9 20 -2 0
-4 -9 -4 -20z"/>
<path d="M2562 229 c2 -6 8 -10 13 -10 5 0 11 4 13 10 2 6 -4 11 -13 11 -9 0
-15 -5 -13 -11z"/>
<path d="M190 209 c0 -5 -4 -7 -10 -4 -5 3 -10 2 -10 -3 0 -6 11 -9 24 -8 18
1 22 4 14 14 -13 15 -18 15 -18 1z"/>
<path d="M109 193 c-12 -15 -12 -16 1 -8 8 4 5 -2 -7 -14 -13 -12 -23 -30 -23
-41 0 -10 -6 -21 -12 -23 -10 -4 -10 -6 -1 -6 7 -1 19 13 28 29 21 41 39 39
32 -4 l-5 -33 36 13 c21 7 45 13 55 14 18 0 23 26 9 48 -6 9 -12 5 -22 -13
-15 -27 -50 -34 -50 -10 0 8 5 15 10 15 6 0 10 5 10 10 0 6 -7 10 -15 10 -8 0
-15 7 -15 15 0 20 -14 19 -31 -2z"/>
<path d="M36 124 c-9 -23 -7 -34 5 -34 6 0 9 7 5 15 -3 8 -1 15 4 15 6 0 10 5
10 10 0 16 -17 12 -24 -6z"/>
<path d="M2717 129 c-13 -7 -15 -15 -8 -28 7 -13 6 -18 -4 -18 -8 0 -16 6 -19
14 -7 18 -26 17 -26 -2 0 -8 4 -15 9 -15 5 0 12 -9 16 -20 3 -11 11 -19 17
-17 6 1 13 -4 15 -11 3 -7 -1 -10 -9 -7 -9 4 -15 0 -15 -10 0 -12 14 -15 74
-15 l73 0 0 51 c0 46 -2 50 -21 44 -15 -5 -22 -2 -26 14 -3 12 -11 21 -18 21
-8 0 -19 2 -27 5 -7 2 -21 0 -31 -6z m83 -63 c0 -2 -8 -10 -17 -17 -16 -13
-17 -12 -4 4 13 16 21 21 21 13z"/>
<path d="M258 103 c5 -21 7 -23 10 -9 2 10 0 22 -6 28 -6 6 -7 0 -4 -19z"/>
<path d="M160 77 c-14 -6 -26 -11 -27 -12 -1 -1 2 -14 6 -31 6 -19 10 -22 10
-10 1 11 11 30 23 43 24 26 23 26 -12 10z"/>
<path d="M40 65 c0 -8 5 -15 10 -15 7 0 7 -6 1 -18 -7 -14 -6 -18 9 -19 13 -1
17 3 13 13 -3 7 2 17 11 20 28 11 18 34 -14 34 -20 0 -30 -5 -30 -15z"/>
<path d="M226 54 c-9 -8 -16 -12 -16 -8 0 3 -7 1 -15 -6 -8 -7 -15 -16 -15
-21 0 -15 28 -10 34 7 3 8 11 12 17 8 8 -4 9 -3 5 4 -4 7 -1 12 8 12 9 0 16 5
16 10 0 15 -16 12 -34 -6z"/>
<path d="M2605 61 c-3 -5 -1 -12 4 -15 5 -3 11 1 15 9 6 16 -9 21 -19 6z"/>
<path d="M2622 24 c-13 -9 -22 -11 -22 -4 0 6 -5 8 -11 5 -15 -10 -3 -18 31
-20 23 -1 30 2 30 17 0 22 0 22 -28 2z"/>
<path d="M2660 10 c0 -5 5 -10 10 -10 6 0 10 5 10 10 0 6 -4 10 -10 10 -5 0
-10 -4 -10 -10z"/>
</g>
</svg>
